<svg version="1.1" id="Слой_2" xmlns="http://www.w3.org/2000/svg" x="0" y="0" viewBox="0 0 112.9 84.1" xml:space="preserve"><style>.st1{fill:#ed3424}</style><path d="M17.9 75.4h1.5l1.5 3.9c.2.5.4 1.1.4 1.1s.2-.7.4-1.1l1.5-3.9h1.5l.6 7.8H24l-.3-4.4v-1.2s-.3.8-.4 1.2l-1.3 3h-1.2l-1.3-3c-.2-.5-.4-1.2-.4-1.2v1.2l-.3 4.4h-1.4l.5-7.8zm10.8 0h4.5v1.2h-3.1v6.6h-1.4v-7.8zm7.2 0h6.3v7.8h-1.4v-6.6h-3.5v6.6h-1.4v-7.8zm10.3 6.3c.2.2.5.4.9.4s.6-.3.8-.7l-3.1-6h1.6l1.7 3.5c.3.5.4 1 .4 1s.1-.5.3-1l1.3-3.5h1.5l-2.4 6.2c-.3.8-.9 1.8-2 1.8-.6 0-1.1-.2-1.6-.5l.6-1.2z" fill="#a6a8ab"/><path class="st1" d="M32.2 28.3c2.3 0 4 1.7 4 4s-1.7 4.1-4 4.1-4-1.8-4-4.1c0-2.2 1.7-4 4-4zm0 6.8c1.4 0 2.6-1.2 2.6-2.8 0-1.5-1.1-2.7-2.6-2.7-1.4 0-2.6 1.2-2.6 2.7.1 1.6 1.2 2.8 2.6 2.8z"/><path d="M48.9 28.4h1.4v7.8h-1.4zm5.9 0h-1.6l-2.6 3.8 2.8 4.1h1.7l-2.9-4.2zm31.4 0h1.4v7.8h-1.4zm5.9 0h-1.6l-2.6 3.8 2.8 4.1h1.7l-2.9-4.2zM73.2 44.1h1.4v7.8h-1.4zm5.9 0h-1.6L75 47.8l2.7 4.1h1.8l-3-4.1zM17.9 28.4h1.5l1.5 3.9c.2.5.4 1.1.4 1.1s.2-.7.4-1.1l1.5-3.9h1.5l.6 7.8H24l-.3-4.4v-1.2s-.3.8-.4 1.2l-1.3 3h-1.2l-1.3-3c-.2-.5-.4-1.2-.4-1.2v1.2l-.3 4.4h-1.4l.5-7.8zm25-.1c1 0 2.1.3 2.9 1.1l-.7 1.1c-.6-.5-1.4-.8-2.1-.8-1.7 0-2.6 1.2-2.6 2.7 0 1.5.9 2.8 2.6 2.8.8 0 1.7-.4 2.3-1l.7 1c-.7.7-1.7 1.3-3.1 1.3-2.5 0-4-1.8-4-4.1 0-2.4 1.7-4.1 4-4.1zm18 0c2.3 0 4 1.7 4 4s-1.7 4.1-4 4.1-4-1.8-4-4.1c0-2.2 1.7-4 4-4zm0 6.8c1.4 0 2.6-1.2 2.6-2.8 0-1.5-1.1-2.7-2.6-2.7-1.4 0-2.6 1.2-2.6 2.7.1 1.6 1.2 2.8 2.6 2.8zm7.2-6.7h2.8c1.4 0 2.4.7 2.4 2 0 .7-.4 1.4-.9 1.7.9.3 1.3 1 1.3 1.8 0 1.6-1.3 2.3-2.7 2.3h-2.8v-7.8zm2.8 3.2c.6 0 1-.4 1-1s-.3-1-1-1h-1.4v2h1.4zM71 35c.7 0 1.1-.5 1.1-1.1 0-.6-.4-1.1-1.1-1.1h-1.5V35H71zm9.3-6.7c1 0 2.1.3 2.9 1.1l-.7 1.1c-.5-.5-1.4-.8-2.1-.8-1.7 0-2.6 1.2-2.6 2.7 0 1.5.9 2.8 2.6 2.8.8 0 1.7-.4 2.3-1l.8 1c-.7.7-1.7 1.3-3.1 1.3-2.5 0-4-1.8-4-4.1-.2-2.4 1.5-4.1 3.9-4.1zm14.6.1h1.4V33c0 .5-.1 1.2-.1 1.2s.4-.8.7-1.2l3-4.5h1.4v7.8h-1.4v-4.5c0-.5.1-1.2.1-1.2s-.4.7-.6 1.2l-3 4.5H95v-7.9zm9.9 0h1.4V33c0 .5-.1 1.2-.1 1.2s.4-.8.7-1.2l3-4.5h1.4v7.8h-1.4v-4.5c0-.5.1-1.2.1-1.2s-.4.7-.7 1.2l-3 4.5h-1.4v-7.9zm1.5-1.8v-.1h1.1v.1c0 .5.4.7.7.7.4 0 .8-.2.8-.7v-.1h1.1v.1c0 1-.8 1.5-1.8 1.5-1.1 0-1.9-.6-1.9-1.5zM17.5 44.1H22v1.2h-3v6.6h-1.4v-7.8zm10.6-.1c2.3 0 4 1.8 4 4 0 2.3-1.7 4.1-4 4.1s-4-1.8-4-4.1c-.1-2.3 1.7-4 4-4zm0 6.7c1.4 0 2.6-1.2 2.6-2.8 0-1.5-1.1-2.7-2.6-2.7-1.4 0-2.6 1.2-2.6 2.7 0 1.6 1.1 2.8 2.6 2.8zm7.1-6.6h3c1.5 0 2.5 1 2.5 2.5s-1 2.6-2.5 2.6h-1.6v2.7h-1.4v-7.8zm2.7 3.9c.8 0 1.3-.5 1.3-1.3s-.5-1.3-1.3-1.3h-1.4V48h1.4zm9.3-4c2.3 0 4 1.8 4 4 0 2.3-1.7 4.1-4 4.1s-4-1.8-4-4.1c-.1-2.3 1.6-4 4-4zm0 6.7c1.4 0 2.6-1.2 2.6-2.8 0-1.5-1.1-2.7-2.6-2.7-1.4 0-2.6 1.2-2.6 2.7 0 1.6 1.1 2.8 2.6 2.8zm6.7 0c1-1.5 1.1-3.3 1.1-4.9v-1.7h4.9v6.6h.9v2.8h-1.3V52h-5.1v1.5h-1.3v-2.8h.8zm4.6 0v-5.4h-2.1v.6c0 1.5-.2 3.5-1 4.8h3.1zm8.8-6.7c1 0 2.1.3 2.9 1.1l-.7 1.1c-.6-.5-1.4-.8-2.1-.8-1.7 0-2.6 1.2-2.6 2.7 0 1.5.9 2.8 2.6 2.8.8 0 1.7-.4 2.3-1l.8 1c-.7.7-1.7 1.3-3.1 1.3-2.5 0-4-1.8-4-4.1-.2-2.4 1.5-4.1 3.9-4.1zm18 0c2.3 0 4 1.8 4 4 0 2.3-1.7 4.1-4 4.1s-4-1.8-4-4.1c-.1-2.3 1.7-4 4-4zm0 6.7c1.4 0 2.6-1.2 2.6-2.8 0-1.5-1.1-2.7-2.6-2.7-1.4 0-2.6 1.2-2.6 2.7 0 1.6 1.1 2.8 2.6 2.8zm7.1-6.6h1.4v4.5c0 .5-.1 1.2-.1 1.2s.4-.8.7-1.2l3-4.5h1.4v7.8h-1.4v-4.5c0-.5.1-1.2.1-1.2s-.4.7-.7 1.2l-3 4.5h-1.4v-7.8zm1.5-1.9v-.1H95v.1c0 .5.4.7.7.7.4 0 .7-.2.7-.7v-.1h1.1v.1c0 1-.8 1.5-1.8 1.5s-1.8-.5-1.8-1.5zm-76 23.9c.2.2.5.4.9.4s.6-.3.8-.7l-3.1-6h1.6l1.7 3.5c.3.5.4 1 .4 1s.1-.5.3-1l1.3-3.5h1.5L20.9 66c-.3.8-.9 1.8-2 1.8-.6 0-1.1-.2-1.6-.5l.6-1.2zm8-6.4h1.4V63h3.6v-3.3h1.4v7.8h-1.4v-3.3h-3.6v3.3h-1.4v-7.8zm10 0h1.4v4.5c0 .5-.1 1.2-.1 1.2s.4-.8.7-1.2l3-4.5h1.4v7.8h-1.4V63c0-.5.1-1.2.1-1.2s-.4.7-.6 1.2l-3 4.5H36v-7.8zm9.9 0h2.8c1.4 0 2.4.7 2.4 2 0 .7-.4 1.4-.9 1.7.9.3 1.3 1 1.3 1.8 0 1.6-1.3 2.3-2.7 2.3h-2.8v-7.8zm2.8 3.2c.6 0 1-.4 1-1s-.3-1-1-1h-1.4v2h1.4zm.2 3.4c.7 0 1.1-.5 1.1-1.1 0-.6-.4-1.1-1.1-1.1h-1.5v2.3h1.5zm5.6-6.6h4.7V61h-3.3v2h2.6v1.2h-2.6v2.1h3.4v1.2h-4.9v-7.8zm8 0h3c1.5 0 2.5 1 2.5 2.5s-1 2.6-2.5 2.6h-1.6v2.7h-1.4v-7.8zm2.7 3.9c.8 0 1.3-.5 1.3-1.3s-.5-1.3-1.3-1.3h-1.4v2.7h1.4zm9.2-4c1 0 2.1.3 2.9 1.1l-.7 1.1c-.5-.5-1.4-.8-2.1-.8-1.7 0-2.6 1.2-2.6 2.7 0 1.5.9 2.8 2.6 2.8.8 0 1.7-.4 2.3-1l.7 1c-.7.7-1.7 1.3-3.1 1.3-2.5 0-4-1.8-4-4.1 0-2.4 1.7-4.1 4-4.1zm6 .1h1.4v4.5c0 .5-.1 1.2-.1 1.2s.4-.8.7-1.2l2.9-4.5h1.4v7.8h-1.4V63c0-.5.1-1.2.1-1.2s-.4.7-.6 1.2l-3 4.5h-1.4v-7.8zM92 61h-2.6v-1.2H96V61h-2.6v6.6H92V61zm6.7-1.3h4.7V61h-3.3v2h2.6v1.2h-2.6v2.1h3.4v1.2h-4.9v-7.8zm9.7 1.3h-2.6v-1.2h6.5V61h-2.6v6.6h-1.4V61z" fill="#4d4d4f"/><path class="st1" d="M10.9 51.6c-4.6-5.1-7.4-11.9-7.4-19.3 0-15.9 12.9-28.8 28.8-28.8C44.4 3.5 54.8 11 59 21.6l2.9-1.2C57.2 8.8 45.6.5 32.2.5 14.6.5.3 14.8.3 32.4c0 8.2 3.1 15.7 8.2 21.4l2.4-2.2z"/></svg>